<?xml version="1.0" standalone="no"?>
<!DOCTYPE svg PUBLIC "-//W3C//DTD SVG 20010904//EN"
 "http://www.w3.org/TR/2001/REC-SVG-20010904/DTD/svg10.dtd">
<svg version="1.0" xmlns="http://www.w3.org/2000/svg"
 width="1024.000000pt" height="1280.000000pt" viewBox="0 0 1024.000000 1280.000000"
 preserveAspectRatio="xMidYMid meet">

<g transform="translate(0.000000,1280.000000) scale(0.100000,-0.100000)"
fill="#000000" stroke="none">
<path d="M5176 12343 c-3 -15 -41 -203 -85 -418 -43 -214 -113 -561 -156 -770
-42 -209 -83 -390 -91 -402 -8 -13 -28 -24 -46 -27 -18 -3 -91 -15 -163 -26
-565 -91 -1117 -333 -1568 -688 l-88 -70 166 -66 c92 -37 172 -63 178 -60 7 4
68 44 137 89 215 141 371 222 595 310 428 169 921 242 1372 204 699 -58 1344
-339 1859 -808 42 -39 84 -71 93 -71 8 0 153 137 321 305 168 168 296 302 285
299 -11 -4 -126 -55 -255 -112 -129 -58 -252 -107 -272 -109 -34 -5 -45 2
-154 87 -215 168 -383 272 -637 395 -325 157 -624 249 -995 305 -77 11 -131
24 -140 34 -10 9 -41 141 -83 348 -38 183 -111 544 -164 802 -52 258 -97 471
-99 474 -2 2 -7 -9 -10 -25z"/>
<path d="M2360 10123 c0 -7 41 -106 91 -220 135 -305 139 -316 132 -338 -3
-11 -40 -63 -82 -115 -265 -330 -504 -797 -617 -1207 -41 -152 -79 -333 -95
-461 -7 -56 -18 -101 -28 -114 -14 -16 -89 -34 -431 -104 -943 -190 -1179
-240 -1188 -249 -3 -3 -3 -5 0 -5 8 0 71 -13 693 -139 756 -153 886 -180 908
-187 22 -7 33 -29 41 -79 46 -303 79 -452 147 -662 109 -335 264 -639 480
-938 89 -124 145 -192 151 -185 9 11 128 309 128 321 0 7 -40 74 -89 148 -156
239 -239 401 -330 642 -219 585 -254 1240 -100 1854 121 479 377 954 713 1324
44 48 76 92 76 104 0 15 -97 119 -300 322 -165 165 -300 294 -300 288z"/>
<path d="M5121 9692 c-151 -301 -551 -1189 -551 -1223 0 -4 30 1 68 11 206 57
273 65 547 65 269 -1 331 -7 532 -55 43 -10 79 -17 81 -15 17 16 -576 1310
-609 1331 -5 3 -35 -48 -68 -114z"/>
<path d="M7733 9557 c-35 -84 -63 -162 -63 -172 0 -10 38 -75 84 -144 240
-359 396 -741 475 -1161 41 -222 46 -280 46 -575 0 -317 -9 -408 -66 -669
-112 -513 -358 -993 -716 -1399 -60 -68 -93 -113 -93 -129 0 -17 73 -95 297
-315 164 -161 299 -290 301 -288 2 2 -49 123 -113 269 -78 178 -114 272 -110
286 3 10 42 65 86 121 380 485 616 1034 704 1634 19 135 22 142 45 155 11 6
284 64 607 130 833 169 993 202 993 209 0 4 -73 21 -162 39 -1151 232 -1431
291 -1447 306 -14 12 -23 49 -36 134 -83 563 -283 1064 -604 1515 -44 62 -100
134 -123 160 l-43 49 -62 -155z"/>
<path d="M4974 8450 c-263 -26 -549 -112 -807 -242 -346 -176 -619 -424 -849
-772 -39 -59 -58 -98 -58 -119 0 -21 23 -65 76 -145 352 -529 876 -859 1534
-967 149 -25 441 -30 585 -11 506 67 985 306 1320 657 163 170 335 409 335
464 0 69 -178 313 -360 495 -337 338 -766 552 -1253 626 -125 18 -400 26 -523
14z m389 -336 c240 -55 441 -212 547 -427 71 -146 85 -204 85 -372 0 -116 -4
-154 -23 -220 -31 -110 -34 -114 -69 -92 -52 33 -118 59 -193 75 -124 25 -325
-2 -565 -78 -166 -52 -238 -63 -354 -57 -113 7 -192 24 -275 61 -122 54 -141
97 -141 316 0 124 4 156 24 220 91 293 304 496 596 571 92 23 271 25 368 3z"/>
<path d="M5095 7819 c-36 -72 -65 -137 -65 -144 0 -10 20 -7 77 10 43 14 111
30 151 36 67 11 72 13 66 33 -16 50 -132 196 -156 196 -5 0 -38 -59 -73 -131z"/>
<path d="M5170 7669 c-63 -16 -125 -32 -137 -34 -18 -4 -23 -12 -23 -36 0 -55
-60 -161 -157 -276 -25 -29 -42 -53 -39 -53 4 0 46 20 94 44 130 65 241 102
395 132 17 4 61 7 97 8 36 1 71 6 78 10 34 21 -12 140 -79 200 -49 45 -71 45
-229 5z"/>
<path d="M5540 7420 c-343 -37 -412 -55 -774 -207 l-108 -46 5 -48 c3 -27 15
-69 26 -94 l20 -45 88 0 c115 0 193 14 322 55 150 48 252 71 383 86 l113 12
45 47 c36 37 160 235 160 255 0 9 -114 3 -280 -15z"/>
<path d="M6665 6646 c-146 -129 -382 -285 -542 -358 -310 -141 -598 -203 -938
-203 -287 1 -517 41 -779 137 -208 76 -466 223 -644 367 -34 28 -66 51 -71 51
-14 0 -322 -490 -468 -745 l-64 -110 163 -6 c198 -7 3908 -3 3915 5 3 3 -61
124 -142 268 -81 145 -196 350 -254 455 -58 106 -108 193 -111 193 -3 -1 -32
-24 -65 -54z"/>
<path d="M2684 4939 c-167 -167 -302 -305 -300 -307 2 -2 122 49 267 112 145
64 270 116 280 116 9 0 72 -43 139 -96 382 -297 787 -499 1240 -619 123 -32
311 -70 427 -85 60 -8 97 -18 107 -29 8 -9 35 -119 61 -246 25 -126 98 -486
161 -800 64 -313 117 -571 118 -573 6 -5 129 575 250 1178 95 471 89 454 174
466 641 89 1175 308 1664 681 53 41 101 80 107 87 9 11 -18 25 -141 75 -84 34
-162 61 -172 61 -11 0 -81 -40 -155 -89 -193 -127 -420 -246 -581 -307 -19 -7
-60 -22 -90 -34 -30 -11 -117 -39 -193 -60 -904 -258 -1867 -98 -2633 436
-108 75 -245 185 -324 259 -102 96 -60 119 -406 -226z"/>
<path d="M8170 4860 c0 -16 7 -20 30 -20 l30 0 0 -85 c0 -78 2 -85 20 -85 18
0 20 7 20 85 0 84 0 85 25 85 18 0 25 5 25 20 0 18 -7 20 -75 20 -68 0 -75 -2
-75 -20z"/>
<path d="M8360 4852 c0 -16 -3 -63 -6 -105 -7 -74 -6 -77 15 -77 20 0 21 5 21
76 0 47 4 73 10 69 6 -3 10 -13 10 -22 0 -35 32 -123 45 -123 9 0 22 27 36 73
11 39 22 77 24 82 2 6 4 -13 4 -41 1 -83 11 -114 34 -114 18 0 19 4 13 53 -3
28 -6 76 -6 105 0 51 -1 52 -30 52 -28 0 -31 -4 -52 -72 -13 -43 -24 -65 -26
-53 -2 11 -10 44 -18 73 -13 48 -17 52 -44 52 -26 0 -30 -4 -30 -28z"/>
<path d="M1760 1355 l0 -135 35 0 35 0 0 50 0 50 145 0 145 0 0 -50 0 -50 35
0 35 0 0 60 c0 39 -6 70 -16 85 -16 25 -17 25 -180 25 l-164 0 0 50 0 50 -35
0 -35 0 0 -135z"/>
<path d="M2015 1455 l-40 -34 55 0 c48 0 60 4 94 34 l39 35 -54 0 c-47 0 -59
-5 -94 -35z"/>
<path d="M2286 1468 c-12 -17 -16 -49 -16 -135 l0 -113 35 0 35 0 0 95 c0 52
3 95 6 95 3 0 61 -43 129 -95 101 -78 130 -95 158 -95 55 0 67 28 67 160 l0
110 -35 0 -35 0 0 -95 c0 -52 -3 -95 -7 -95 -3 0 -62 43 -131 95 -99 76 -131
95 -158 95 -23 0 -38 -7 -48 -22z"/>
<path d="M2786 1468 c-12 -16 -16 -47 -16 -113 0 -140 -8 -135 214 -135 l184
0 16 25 c12 17 16 48 16 110 0 62 -4 93 -16 110 l-16 25 -184 0 c-178 0 -183
-1 -198 -22z m339 -113 l0 -60 -142 -3 -143 -3 0 66 0 66 143 -3 142 -3 0 -60z"/>
<path d="M3280 1377 c0 -133 10 -157 67 -157 26 0 47 10 82 38 69 58 66 57
127 8 44 -36 64 -46 93 -46 57 0 71 32 71 164 l0 106 -40 0 -39 0 -3 -96 -3
-96 -68 52 c-40 30 -72 48 -80 44 -6 -4 -38 -27 -69 -51 -31 -24 -59 -43 -62
-43 -3 0 -6 43 -6 95 l0 95 -35 0 -35 0 0 -113z"/>
<path d="M3790 1377 c0 -165 -11 -157 211 -157 l179 0 0 35 0 35 -160 0 -160
0 0 100 0 100 -35 0 -35 0 0 -113z"/>
<path d="M4260 1455 l0 -35 195 0 195 0 0 35 0 35 -195 0 -195 0 0 -35z"/>
<path d="M4730 1355 l0 -135 35 0 35 0 0 100 0 101 143 -3 142 -3 0 -60 0 -60
-127 -3 -128 -3 0 -34 0 -35 149 0 c147 0 149 0 165 25 12 17 16 48 16 110 0
62 -4 93 -16 110 l-16 25 -199 0 -199 0 0 -135z"/>
<path d="M5246 1468 c-12 -16 -16 -47 -16 -113 0 -141 -10 -135 231 -135 l199
0 0 85 0 85 -110 0 -110 0 0 -35 0 -35 76 0 c56 0 75 -3 72 -12 -3 -10 -44
-14 -146 -16 l-142 -3 0 66 0 65 180 0 180 0 0 35 0 35 -199 0 c-195 0 -200
-1 -215 -22z"/>
<path d="M5740 1455 l0 -35 195 0 195 0 0 35 0 35 -195 0 -195 0 0 -35z"/>
<path d="M6247 1355 l-67 -135 215 0 c118 0 215 2 215 5 0 3 -29 64 -65 135
l-65 130 -83 0 -82 0 -68 -135z m215 10 c15 -27 28 -56 28 -62 0 -10 -25 -13
-90 -13 -52 0 -90 4 -90 10 0 5 12 35 27 65 26 54 29 56 63 53 31 -3 38 -9 62
-53z"/>
<path d="M6620 1455 l0 -35 178 -2 177 -3 3 -27 3 -28 -128 0 -128 0 105 -70
c98 -65 109 -70 160 -70 l55 0 -54 38 -53 37 41 3 c28 2 45 10 56 25 20 28 19
111 -1 142 l-16 25 -199 0 -199 0 0 -35z"/>
<path d="M7120 1355 l0 -135 35 0 35 0 0 50 0 50 145 0 145 0 0 -50 0 -50 35
0 35 0 0 60 c0 39 -6 70 -16 85 -16 25 -17 25 -180 25 l-164 0 0 50 0 50 -35
0 -35 0 0 -135z"/>
<path d="M7375 1455 l-40 -34 55 0 c48 0 60 4 94 34 l39 35 -54 0 c-47 0 -59
-5 -94 -35z"/>
<path d="M7817 1355 l-67 -135 215 0 c118 0 215 2 215 5 0 3 -29 64 -65 135
l-65 130 -83 0 -82 0 -68 -135z m215 10 c15 -27 28 -56 28 -62 0 -10 -25 -13
-90 -13 -52 0 -90 4 -90 10 0 5 12 35 27 65 26 54 29 56 63 53 31 -3 38 -9 62
-53z"/>
<path d="M8250 1455 l0 -35 165 0 165 0 0 35 0 35 -165 0 -165 0 0 -35z"/>
<path d="M4260 1355 l0 -35 185 0 185 0 0 35 0 35 -185 0 -185 0 0 -35z"/>
<path d="M5740 1355 l0 -35 185 0 185 0 0 35 0 35 -185 0 -185 0 0 -35z"/>
<path d="M8380 1340 l0 -50 -65 0 -65 0 0 -35 0 -35 165 0 165 0 0 35 0 35
-65 0 -65 0 0 50 0 50 -35 0 -35 0 0 -50z"/>
<path d="M4260 1255 l0 -35 195 0 195 0 0 35 0 35 -195 0 -195 0 0 -35z"/>
<path d="M5740 1255 l0 -35 195 0 195 0 0 35 0 35 -195 0 -195 0 0 -35z"/>
<path d="M7630 1255 c0 -33 2 -35 35 -35 33 0 35 2 35 35 0 33 -2 35 -35 35
-33 0 -35 -2 -35 -35z"/>
</g>
</svg>
